# xmcd
#
# Track frame offsets: 
#        150
#        19471
#        34756
#        49494
#        63021
#        83131
#        94175
#        106414
#        128490
#        144885
#        160751
#        173313
#        187293
#        203286
#        215054
#        228071
#        247284
#        259966
#        272352
#        286468
#        303399
#
# Disc length: 4209 seconds
#
# Revision: 0
# Processed by: cddbd v1.5.2PL0 Copyright (c) Steve Scherf et al.
# Submitted via: ExactAudioCopy v0.99pb4
#
DISCID=24106f15
DTITLE=Various Artist - Schlagerfestival 2013 - CD 2
DYEAR=2013
DGENRE=Pop-Folk
TTITLE0=André Jr. Hazes - Bloed Zweet En Tranen
TTITLE1=Lindsay - Ga Met Me Mee
TTITLE2=Luc Steeno - M'n Klein Geluk
TTITLE3=Bart Van Den Bossche - De Heuveltjes Van Erika
TTITLE4=Nicole - Papillon
TTITLE5=Roy Black - Du Bist Nicht Allein
TTITLE6=Peggy March - Mit 17 Hat Man Noch Träume
TTITLE7=Klostertaler - Oh La La
TTITLE8=Frans Duijts and Django Wagner - In Ons Café
TTITLE9=Frans Bauer and Corry Konings - Diep In Mijn Hart
TTITLE10=Jo Vally - Kom Eens Dicht Bij Mij
TTITLE11=Elke - Dat Hemels Gevoel
TTITLE12=Andrea Berg - Du Wolltest Mich Für Eine Nacht
TTITLE13=Die Flippers - Weine Nicht, Kleine Eva
TTITLE14=Rex Gildo - Zarina
TTITLE15=Costa Cordalis - Am Tag Als Die Sonne Nicht Mehr Kam
TTITLE16=Danny Fabry - Wat Een Heerlijke Dag
TTITLE17=Nicole and Hugo - Goeiemorgen Morgen 2012
TTITLE18=The Sunsets - De Lichtjes Van De Schelde
TTITLE19=Gérard Lenorman - Voici Les Clés
TTITLE20=Lee Towers - I Can See Clearly Now
EXTD=
EXTT0=
EXTT1=
EXTT2=
EXTT3=
EXTT4=
EXTT5=
EXTT6=
EXTT7=
EXTT8=
EXTT9=
EXTT10=
EXTT11=
EXTT12=
EXTT13=
EXTT14=
EXTT15=
EXTT16=
EXTT17=
EXTT18=
EXTT19=
EXTT20=
PLAYORDER=
